<?xml version="1.0" encoding="UTF-8"?>
<svg width="211px" height="46px" viewBox="0 0 211 46" version="1.1" xmlns="http://www.w3.org/2000/svg" xmlns:xlink="http://www.w3.org/1999/xlink">
    <!-- Generator: Sketch 41.2 (35397) - http://www.bohemiancoding.com/sketch -->
    <title>MyRadio logo</title>
    <desc>Created with Sketch.</desc>
    <defs></defs>
    <g id="Symbols" stroke="none" stroke-width="1" fill="none" fill-rule="evenodd">
        <g id="MyRadio-logo" fill="#FFFFFF">
            <path d="M24.536,10.188 C23.335994,10.188 22.1600058,10.3259986 21.008,10.602 C19.8559942,10.8780014 18.776005,11.2979972 17.768,11.862 C16.759995,12.4260028 15.8480041,13.1279958 15.032,13.968 C14.2159959,14.8080042 13.5440026,15.8039942 13.016,16.956 C12.8959994,17.1960012 12.7640007,17.519998 12.62,17.928 C12.4759993,18.336002 12.3320007,18.7619978 12.188,19.206 C12.0439993,19.6500022 11.9240005,20.0819979 11.828,20.502 C11.7319995,20.9220021 11.684,21.2519988 11.684,21.492 L11.684,36 L17.192,36 L17.192,22.86 C17.192,22.0919962 17.3299986,21.3420037 17.606,20.61 C17.8820014,19.8779963 18.2539977,19.2060031 18.722,18.594 C19.1900023,17.9819969 19.7419968,17.4600022 20.378,17.028 C21.0140032,16.5959978 21.6919964,16.2960008 22.412,16.128 L22.808,16.128 C23.000001,16.128 23.2039989,16.1220001 23.42,16.11 C23.6360011,16.0979999 23.839999,16.092 24.032,16.092 L24.428,16.092 C26.036008,16.092 27.3679947,16.3859971 28.424,16.974 C29.4800053,17.5620029 30.3439966,18.6239923 31.016,20.16 C31.0640002,20.2800006 31.1239996,20.441999 31.196,20.646 C31.2680004,20.850001 31.3399996,21.047999 31.412,21.24 C31.4840004,21.432001 31.5439998,21.6059992 31.592,21.762 C31.6400002,21.9180008 31.664,22.0079999 31.664,22.032 L31.664,36 L37.316,36 L37.316,22.86 C37.316,22.1159963 37.4539986,21.3780037 37.73,20.646 C38.0060014,19.9139963 38.3839976,19.2420031 38.864,18.63 C39.3440024,18.0179969 39.8959969,17.4900022 40.52,17.046 C41.1440031,16.6019978 41.8159964,16.2960008 42.536,16.128 L44.552,16.128 C46.160008,16.128 47.4919947,16.4039972 48.548,16.956 C49.6040053,17.5080028 50.4679966,18.5759921 51.14,20.16 C51.1880002,20.2800006 51.2539996,20.441999 51.338,20.646 C51.4220004,20.850001 51.4999996,21.047999 51.572,21.24 C51.6440004,21.432001 51.7039998,21.6059992 51.752,21.762 C51.8000002,21.9180008 51.824,22.0079999 51.824,22.032 L51.824,36 L57.332,36 L57.332,20.952 C57.332,20.8079993 57.2960004,20.5920014 57.224,20.304 C57.1519996,20.0159986 57.0740004,19.7220015 56.99,19.422 C56.9059996,19.1219985 56.8160005,18.8400013 56.72,18.576 C56.6239995,18.3119987 56.5520002,18.1200006 56.504,18 C55.3999945,15.4799874 53.8580099,13.5480067 51.878,12.204 C49.8979901,10.8599933 47.4920142,10.188 44.66,10.188 C42.5959897,10.188 40.760008,10.5599963 39.152,11.304 C37.543992,12.0480037 35.9960074,13.1279929 34.508,14.544 C33.2359936,13.0319924 31.7360086,11.9280035 30.008,11.232 C28.2799914,10.5359965 26.4560096,10.188 24.536,10.188 Z M68.924,36 L68.924,45.936 L74.54,45.936 L74.54,36 L74.972,35.748 C76.3880071,35.3159978 77.7439935,34.7280037 79.04,33.984 C80.3360065,33.2399963 81.3919959,32.2080066 82.208,30.888 C82.4240011,30.5519983 82.6579987,30.1560023 82.91,29.7 C83.1620013,29.2439977 83.3959989,28.7580026 83.612,28.242 C83.8280011,27.7259974 84.0079993,27.2100026 84.152,26.694 C84.2960007,26.1779974 84.368,25.7040022 84.368,25.272 L84.368,10.224 L78.86,10.224 L78.86,24.192 C78.86,24.2160001 78.8360002,24.2999993 78.788,24.444 C78.7399998,24.5880007 78.6800004,24.761999 78.608,24.966 C78.5359996,25.170001 78.4580004,25.373999 78.374,25.578 C78.2899996,25.782001 78.2240002,25.9439994 78.176,26.064 C77.575997,27.5280073 76.7300055,28.5719969 75.638,29.196 C74.5459945,29.8200031 73.2320077,30.132 71.696,30.132 C71.1199971,30.132 70.5440029,30.0960004 69.968,30.024 C69.3919971,29.9519996 68.8520025,29.814001 68.348,29.61 C67.8439975,29.405999 67.3760022,29.1240018 66.944,28.764 C66.5119978,28.4039982 66.1400016,27.9480028 65.828,27.396 C65.6839993,27.1319987 65.5280008,26.8320017 65.36,26.496 C65.1919992,26.1599983 65.0300008,25.8060019 64.874,25.434 C64.7179992,25.0619981 64.5920005,24.6960018 64.496,24.336 C64.3999995,23.9759982 64.352,23.6520014 64.352,23.364 L64.352,10.224 L58.844,10.224 L58.844,24.732 C58.844,26.1480071 59.1379971,27.4679939 59.726,28.692 C60.3140029,29.9160061 61.0819953,31.0079952 62.03,31.968 C62.9780047,32.9280048 64.051994,33.7499966 65.252,34.434 C66.452006,35.1180034 67.6759938,35.6399982 68.924,36 Z M85.844,36 L91.604,36 L91.604,22.068 C91.604,21.4919971 91.7599984,20.8560035 92.072,20.16 C92.3840016,19.4639965 92.7919975,18.8100031 93.296,18.198 C93.8000025,17.5859969 94.3579969,17.0700021 94.97,16.65 C95.5820031,16.2299979 96.1999969,16.02 96.824,16.02 L111.584,16.02 L111.584,10.26 L97.112,10.26 C95.4559917,10.26 93.9380069,10.6439962 92.558,11.412 C91.1779931,12.1800038 89.990005,13.1819938 88.994,14.418 C87.997995,15.6540062 87.2240028,17.0339924 86.672,18.558 C86.1199972,20.0820076 85.844,21.5999924 85.844,23.112 L85.844,36 Z M112.412,23.04 C112.412,24.5520076 112.669997,26.0759923 113.186,27.612 C113.702003,29.1480077 114.439995,30.5399938 115.4,31.788 C116.360005,33.0360062 117.517993,34.0499961 118.874,34.83 C120.230007,35.6100039 121.759991,36 123.464,36 L137.972,36 L137.972,20.952 C137.972,20.9039998 137.948,20.7900009 137.9,20.61 C137.852,20.4299991 137.804,20.2260011 137.756,19.998 C137.708,19.7699989 137.648,19.5480011 137.576,19.332 C137.504,19.1159989 137.456,18.9480006 137.432,18.828 C136.423995,16.1399866 134.88201,14.0340076 132.806,12.51 C130.72999,10.9859924 128.240015,10.224 125.336,10.224 C123.487991,10.224 121.778008,10.5479968 120.206,11.196 C118.633992,11.8440032 117.272006,12.7379943 116.12,13.878 C114.967994,15.0180057 114.062003,16.3679922 113.402,17.928 C112.741997,19.4880078 112.412,21.1919908 112.412,23.04 Z M118.064,23.112 C118.064,22.0319946 118.243998,21.0600043 118.604,20.196 C118.964002,19.3319957 119.461997,18.5940031 120.098,17.982 C120.734003,17.3699969 121.489996,16.9020016 122.366,16.578 C123.242004,16.2539984 124.195995,16.092 125.228,16.092 C126.116004,16.092 126.979996,16.2299986 127.82,16.506 C128.660004,16.7820014 129.415997,17.1899973 130.088,17.73 C130.760003,18.2700027 131.299998,18.9239962 131.708,19.692 C132.116002,20.4600038 132.32,21.3359951 132.32,22.32 L132.32,30.456 C131.335995,30.456 130.298005,30.4679999 129.206,30.492 C128.113995,30.5160001 127.040005,30.4860004 125.984,30.402 C124.927995,30.3179996 123.920005,30.1500013 122.96,29.898 C121.999995,29.6459987 121.160004,29.2440028 120.44,28.692 C119.719996,28.1399972 119.144002,27.4200044 118.712,26.532 C118.279998,25.6439956 118.064,24.504007 118.064,23.112 Z M139.124,23.4 C139.124,24.9600078 139.411997,26.4899925 139.988,27.99 C140.564003,29.4900075 141.367995,30.8339941 142.4,32.022 C143.432005,33.2100059 144.649993,34.1699963 146.054,34.902 C147.458007,35.6340037 148.987992,36 150.644,36 L164.864,36 L164.864,0.324 L159.392,0.324 L159.392,12.132 C158.095994,11.5559971 156.872006,11.1360013 155.72,10.872 C154.567994,10.6079987 153.296007,10.476 151.904,10.476 C150.007991,10.476 148.274008,10.7939968 146.702,11.43 C145.129992,12.0660032 143.786006,12.9599942 142.67,14.112 C141.553994,15.2640058 140.684003,16.6319921 140.06,18.216 C139.435997,19.8000079 139.124,21.5279906 139.124,23.4 Z M144.992,23.22 C144.992,22.1639947 145.159998,21.1980044 145.496,20.322 C145.832002,19.4459956 146.305997,18.6960031 146.918,18.072 C147.530003,17.4479969 148.279996,16.9680017 149.168,16.632 C150.056004,16.2959983 151.039995,16.128 152.12,16.128 C153.512007,16.128 154.657995,16.3439978 155.558,16.776 C156.458004,17.2080022 157.177997,17.7959963 157.718,18.54 C158.258003,19.2840037 158.641999,20.1359952 158.87,21.096 C159.098001,22.0560048 159.248,23.0699947 159.32,24.138 C159.392,25.2060053 159.416,26.2799946 159.392,27.36 C159.368,28.4400054 159.356,29.4719951 159.356,30.456 C158.371995,30.456 157.334005,30.4679999 156.242,30.492 C155.149995,30.5160001 154.070005,30.4920004 153.002,30.42 C151.933995,30.3479996 150.914005,30.1920012 149.942,29.952 C148.969995,29.7119988 148.118004,29.3220027 147.386,28.782 C146.653996,28.2419973 146.072002,27.5280044 145.64,26.64 C145.207998,25.7519956 144.992,24.612007 144.992,23.22 Z M166.88,10.548 L166.88,36 L172.244,36 L172.244,10.548 L166.88,10.548 Z M173.972,23.148 C173.972,24.9960092 174.295997,26.7059921 174.944,28.278 C175.592003,29.8500079 176.485994,31.2059943 177.626,32.346 C178.766006,33.4860057 180.115992,34.3799968 181.676,35.028 C183.236008,35.6760032 184.927991,36 186.752,36 C188.624009,36 190.339992,35.6760032 191.9,35.028 C193.460008,34.3799968 194.809994,33.4860057 195.95,32.346 C197.090006,31.2059943 197.971997,29.8500079 198.596,28.278 C199.220003,26.7059921 199.532,24.9840094 199.532,23.112 C199.532,21.2639908 199.226003,19.5480079 198.614,17.964 C198.001997,16.3799921 197.138006,15.0120058 196.022,13.86 C194.905994,12.7079942 193.574008,11.8080032 192.026,11.16 C190.477992,10.5119968 188.756009,10.188 186.86,10.188 C185.011991,10.188 183.302008,10.5119968 181.73,11.16 C180.157992,11.8080032 178.796006,12.7079942 177.644,13.86 C176.491994,15.0120058 175.592003,16.3799921 174.944,17.964 C174.295997,19.5480079 173.972,21.2759906 173.972,23.148 Z M179.624,23.112 C179.624,22.319996 179.743999,21.5460038 179.984,20.79 C180.224001,20.0339962 180.565998,19.3440031 181.01,18.72 C181.454002,18.0959969 181.993997,17.5560023 182.63,17.1 C183.266003,16.6439977 183.967996,16.320001 184.736,16.128 L185.132,16.128 C185.324001,16.128 185.527999,16.1220001 185.744,16.11 C185.960001,16.0979999 186.163999,16.092 186.356,16.092 L186.752,16.092 C187.808005,16.092 188.773996,16.2479984 189.65,16.56 C190.526004,16.8720016 191.281997,17.327997 191.918,17.928 C192.554003,18.528003 193.045998,19.2659956 193.394,20.142 C193.742002,21.0180044 193.916,22.0079945 193.916,23.112 C193.916,24.1920054 193.742002,25.1639957 193.394,26.028 C193.045998,26.8920043 192.560003,27.6299969 191.936,28.242 C191.311997,28.8540031 190.568004,29.3219984 189.704,29.646 C188.839996,29.9700016 187.892005,30.132 186.86,30.132 C185.827995,30.132 184.874004,29.9700016 183.998,29.646 C183.121996,29.3219984 182.360003,28.860003 181.712,28.26 C181.063997,27.659997 180.554002,26.9280043 180.182,26.064 C179.809998,25.1999957 179.624,24.2160055 179.624,23.112 Z" id="MyRadio"></path>
        </g>
    </g>
</svg>