<?xml version="1.0" encoding="UTF-8"?>
<svg width="1080px" height="454px" viewBox="0 0 1080 454" version="1.1" xmlns="http://www.w3.org/2000/svg" xmlns:xlink="http://www.w3.org/1999/xlink">
    <!-- Generator: Sketch 41.2 (35397) - http://www.bohemiancoding.com/sketch -->
    <title>URY</title>
    <desc>Created with Sketch.</desc>
    <defs></defs>
    <g id="Page-1" stroke="none" stroke-width="1" fill="none" fill-rule="evenodd">
        <g id="URY" transform="translate(-1.000000, 0.000000)" fill="#FFFFFF">
            <g id="Group">
                <g id="Layer_2">
                    <g id="Group">
                        <path d="M189.1,0.4 C189.1,0.4 0.1,80.8 1,227.1 C1.9,378.1 189.1,453.5 189.1,453.5 C189.1,453.5 77.6,347.2 77.6,227 C77.6,87.3 189.1,0.4 189.1,0.4 Z" id="Shape"></path>
                        <path d="M258.4,51.8 C258.4,51.8 112,113.9 112.8,227 C113.4,343.6 258.4,401.9 258.4,401.9 C258.4,401.9 172.3,319.7 172.3,226.7 C172.1,118.8 258.4,51.8 258.4,51.8 Z" id="Shape"></path>
                    </g>
                    <g id="Group" transform="translate(823.000000, 0.000000)">
                        <path d="M69.9,0.4 C69.9,0.4 258.9,80.8 258,227.1 C257.1,378.1 69.9,453.5 69.9,453.5 C69.9,453.5 181.2,347.2 181.2,226.9 C181.4,87.3 69.9,0.4 69.9,0.4 Z" id="Shape"></path>
                        <path d="M0.6,51.8 C0.6,51.8 147,113.9 146.2,227 C145.6,343.6 0.6,401.9 0.6,401.9 C0.6,401.9 86.7,319.7 86.7,226.7 C86.9,118.8 0.6,51.8 0.6,51.8 Z" id="Shape"></path>
                    </g>
                </g>
                <g transform="translate(289.000000, 130.000000)" id="Shape">
                    <path d="M35.5,1.1 L35.5,84.9 C35.5,85.4 35.8,86.6 36.3,88.4 C36.8,90.2 37.4,92.3 38,94.4 C38.6,96.7 39.2,98.8 40,100.9 C40.8,103 41.2,104.5 41.7,105.6 C43.5,109.8 45.9,113.5 48.6,116.3 C51.5,119.2 54.6,121.4 58.1,123.2 C61.6,125 65.4,126.2 69.4,127 C73.5,127.8 77.6,128.2 81.6,128.2 C92.8,128.2 101.7,126.1 108.3,121.7 C114.9,117.3 120.5,109.8 125.2,98.9 C125.4,98.4 125.7,97.8 126,96.9 C126.5,96 126.8,95.2 126.9,94.3 C127.2,93.4 127.4,92.5 127.7,91.7 C128,90.9 128,90.5 128,90.3 L128,1.2 L163,1.2 L163,95.3 C163,95.6 162.8,96.1 162.7,96.8 C162.5,97.6 162.4,98.3 162.1,99.2 C161.8,100.1 161.6,101 161.5,101.8 C161.3,102.7 161.2,103.3 161,103.8 C158.3,113.3 154.5,121.8 149.7,129.5 C144.9,137.1 139.1,143.5 132.5,148.8 C125.9,154.2 118.3,158.3 109.8,161.2 C101.3,164.1 92.1,165.6 82.5,165.6 C72.4,165.6 62.4,163.8 52.7,160.2 C42.9,156.6 34.1,151.6 26.4,145.1 C18.7,138.6 12.4,130.9 7.5,121.8 C2.6,112.7 0.2,102.8 0.2,91.7 L0.2,0.9 L35.5,1.1 L35.5,1.1 Z"></path>
                    <path d="M174.1,83.3 C174.1,73.6 175.9,64 179.4,54.3 C182.9,44.6 187.9,35.7 194.2,27.9 C200.5,20 208.1,13.6 216.9,8.7 C225.7,3.8 235.3,1.3 245.9,1.3 L338.2,1.3 L338.2,38.2 L244,38.2 C240.1,38.2 236.1,39.6 232.2,42.3 C228.3,45 224.8,48.3 221.5,52.1 C218.3,56 215.8,60.1 213.6,64.6 C211.6,69 210.6,73.1 210.6,76.8 L210.6,165.6 L173.9,165.6 L173.9,83.3 L174.1,83.3 L174.1,83.3 Z"></path>
                    <path d="M383.3,155.5 C375.6,151.1 368.8,145.8 362.8,139.8 C356.8,133.6 351.9,126.7 348.1,119 C344.3,111.1 342.5,102.8 342.5,93.8 L342.5,1.2 L377.5,1.2 L377.5,85 C377.5,86.8 377.8,88.9 378.4,91.2 C379,93.5 379.8,95.9 380.8,98.1 C381.9,100.5 382.8,102.8 384,104.9 C385.1,107 386.1,109 387,110.6 C389,114.1 391.4,117.1 394.1,119.4 C396.8,121.7 399.8,123.5 403,124.8 C406.2,126.1 409.6,126.9 413.3,127.4 C416.9,127.9 420.7,128.2 424.3,128.2 C434.1,128.2 442.4,126.2 449.4,122.2 C456.3,118.3 461.8,111.6 465.6,102.3 C465.9,101.5 466.4,100.5 466.8,99.1 C467.4,97.7 467.9,96.5 468.3,95.2 C468.7,93.9 469.2,92.8 469.5,91.9 C469.8,91 470,90.4 470,90.2 L470,1.1 L505,1.1 L505,97 C505,99.7 504.5,102.7 503.6,106.1 C502.7,109.5 501.5,112.7 500.1,115.9 C498.7,119.2 497.2,122.2 495.6,125.3 C493.9,128.2 492.4,130.7 491.1,132.9 C486,141.4 479.2,147.9 470.9,152.7 C462.6,157.4 454,161.2 444.9,164 L442.2,165.7 L442.2,229 L406.4,229 L406.4,165.6 C398.8,163.2 391,159.8 383.3,155.5 Z"></path>
                </g>
            </g>
        </g>
    </g>
</svg>